PathFileType	4	(X/Y/Z)	2_2_95_p1_0-325.trc
DataRate	CameraRate	NumFrames	NumMarkers	Units	OrigDataRate	OrigDataStartFrame	OrigNumFrames
59.0	59.0	5	27	m	59.0	244	326
Frame#	Time	RHip			RKnee			RAnkle			RBigToe			RSmallToe			RHeel			LHip			LKnee			LAnkle			LBigToe			LSmallToe			LHeel			Neck			Head			Nose			RShoulder			RElbow			RWrist			RThumb			RIndex			RPinky			LShoulder			LElbow			LWrist			LThumb			LIndex			LPinky			
		X1	Y1	Z1	X2	Y2	Z2	X3	Y3	Z3	X4	Y4	Z4	X5	Y5	Z5	X6	Y6	Z6	X7	Y7	Z7	X8	Y8	Z8	X9	Y9	Z9	X10	Y10	Z10	X11	Y11	Z11	X12	Y12	Z12	X13	Y13	Z13	X14	Y14	Z14	X15	Y15	Z15	X16	Y16	Z16	X17	Y17	Z17	X18	Y18	Z18	X19	Y19	Z19	X20	Y20	Z20	X21	Y21	Z21	X22	Y22	Z22	X23	Y23	Z23	X24	Y24	Z24	X25	Y25	Z25	X26	Y26	Z26	X27	Y27	Z27	
244	4.135593220338983	0.32330687218050985	0.5572664636896193	0.9427494537993608	0.3176591853004984	0.7198046163365289	1.4056970018370323	0.28501642321549864	0.8945933190044335	1.8286789400590744	0.3033851261532967	0.6729978941121398	1.8787850588686943	0.35711775720887085	0.7539041278658714	1.8949982222185462	0.27738493027382216	0.9230515950405599	1.8686105189798623	0.1081152867428947	0.5263605643399772	0.9428009477569209	0.08050700547511963	0.6943226859543862	1.3928486369694972	0.0697706990802923	0.883150485468705	1.8225676261448416	0.1085583210713619	0.7082833152136333	1.895430350150688	0.03761202118008986	0.7188676689921498	1.878009830770107	0.08357443580845732	0.9738802314943074	1.8843360080381315	0.2113638781793461	0.3242445003325323	0.29375217469463155	0.23829820849914088	0.16369117090088514	0.060478450616613375	0.2660412288311056	0.13707549997449733	0.23112525130624922	0.381582502657335	0.3711910713856031	0.35304854816295306	0.3735032182753841	0.30187991762388544	0.6425797841840719	0.2458660823151621	0.09234033636424535	0.5435607509233322	0.16737641240042353	0.03565723608346041	0.4381875020021633	0.19127593489253628	0.0070285787803905635	0.4351723503081336	0.20565055165793827	0.046106808865770836	0.4942267538360993	0.046387586581320174	0.40478613514981154	0.35636586771878676	-0.03310279243198071	0.48359469614896555	0.6529041363532408	0.01662129575108482	0.5029212799922863	0.9234279572376067	0.08898686699609575	0.5007479890601098	1.032246185663871	0.06624142641063754	0.4597415322684806	1.0624057605749297	0.004150457475219307	0.532603028663256	1.062812368720686
245	4.1525423728813555	0.32076950098796925	0.5447451094529252	0.9425960494118372	0.30887321569935	0.7181473577249956	1.4059407194388207	0.2850192920873529	0.8943702330966152	1.8287943109838742	0.30066925919239396	0.6591669502002667	1.8747944944829027	0.3573114867930654	0.7546181909317744	1.8952981122809276	0.27840027814606394	0.9263448644826644	1.8740406385323087	0.10812397116519301	0.526372506388747	0.942764960662394	0.08056900843108342	0.6941094575068479	1.3926302997835092	0.06983092160002037	0.8830711014335046	1.8225969515822442	0.10941034450183787	0.711362403216891	1.900663043698177	0.03780596006695172	0.7183873050766872	1.8778888437357217	0.08357749299510532	0.9739168093701434	1.8844575323281931	0.2153643895382055	0.3229622909927807	0.29010501235263647	0.23845219502961384	0.16468986906954913	0.06373849953944347	0.2790599154482328	0.14875752485921562	0.22744587040870648	0.3815348323380871	0.3713108133325364	0.352742936642002	0.37804899584773427	0.28985424867931825	0.6432430783653524	0.2408088938474886	0.10268140842243743	0.5424237120441265	0.1657209845018315	0.02717484850183759	0.4454396598716009	0.1866677962713469	0.016631291270955955	0.4340674201131712	0.1967868659943088	0.05481643838141861	0.4904219639624804	0.046026030197947425	0.4050220729717443	0.3554604522147329	-0.03311652593029708	0.48325776866974934	0.6527600107381809	0.01657507137441901	0.503004654739508	0.923453786371403	0.08897363298531487	0.5008579156051097	1.0321631935740772	0.06625273837746291	0.45990996472211976	1.0623848599284471	-0.0029827850957788644	0.5318480880783413	1.063246653978711
246	4.169491525423729	0.32315714845358	0.557428368389568	0.9427501353491916	0.31162855664155836	0.7324397386232386	1.4079934783440289	0.2850116912508559	0.8942948390936142	1.8289216255047218	0.3007257332791014	0.6592277510884355	1.8748903047129961	0.35738917264109765	0.7549767986566996	1.8954328605180255	0.2783631288862258	0.9262323296825173	1.8744033693051023	0.11248208197735508	0.5273832108590474	0.9462363344793496	0.0805218557540792	0.6940725649264197	1.392705231176783	0.06917266586484536	0.8792550273530427	1.8172196314907296	0.1086243748281573	0.7082808108912124	1.8955115356420829	0.03778729347479071	0.7182319764923459	1.8777774994188936	0.08361034601602575	0.9737763190586073	1.8842681376086858	0.2099614652695806	0.3343017366834331	0.28760458501359504	0.238628698263228	0.16549598896756793	0.06655916664988502	0.28307475634286633	0.1503719836430619	0.22658187669470745	0.377750634977491	0.3696196553673677	0.35306058312844224	0.37832928751794864	0.28968943751869586	0.6468524178634046	0.23712858333408748	0.10054532251668401	0.5429444450615762	0.1658481247244344	0.028470494518028862	0.4483611458638823	0.18347814041060212	0.01605607979911942	0.43766603415538813	0.19697127308238174	0.054554218086048475	0.4904159754466007	0.04613110678594793	0.40437750939347733	0.3525152107167765	-0.033406039848629915	0.4831764138852879	0.6486752409927121	0.016560021283498774	0.5027926562889462	0.9234765549315456	0.08899616879981172	0.5008213741879907	1.0322444561560693	0.06647878651026692	0.46014062685750123	1.062445915192479	-0.0026429704293979136	0.5343019344308463	1.0670280376884345
247	4.186440677966102	0.3230790241458278	0.5577976382118655	0.9428221829371811	0.31160499973167743	0.7326209510382087	1.408024880190423	0.28600376310763176	0.8976868928683005	1.8341160649188495	0.30081039042735946	0.6592713104554164	1.8750882863269815	0.3580600615414132	0.7544981206279635	1.8995320230391401	0.2783423055227004	0.9259594115785158	1.8742185137197385	0.10862457938233376	0.5262413738550216	0.946337727040363	0.08054390008282461	0.6939818710378644	1.3927331254253799	0.06911637553108434	0.8793371893276554	1.8172029865689965	0.10942688293860967	0.7114953118601114	1.9006670361886264	0.03784626383261219	0.7185693790863975	1.8779295995059562	0.08127230393385773	0.9567643191453611	1.879731559218474	0.21018540421785856	0.3349891157672217	0.2905865028850589	0.2452341788818375	0.16537738286674208	0.06664530706293922	0.28330424387124986	0.1504245660611394	0.22648372361323185	0.38153472792438947	0.37120920003265606	0.3525666048105206	0.3738037219359099	0.2998901042131319	0.6460272147536783	0.2452512106010231	0.09068543339079205	0.5441947780553691	0.1683546980241635	0.037486922488902244	0.4461027325747367	0.1975241087607038	-0.006109756342664332	0.4332693009345437	0.21046060987940837	0.036005741344638846	0.49238069009779695	0.04612904365067311	0.40549983760229996	0.3591722218579604	-0.03373864964088774	0.484273454792463	0.6522852780523952	0.016618461164596716	0.5024612965743767	0.9236019759542916	0.08845172077413163	0.5021056607867712	1.0358803480641403	0.06636333297201595	0.4611884862068843	1.0626744273061333	-0.00271790120175334	0.533996738951937	1.0670885502684446
248	4.203389830508475	0.3230849522780862	0.5577625162140938	0.9428063088999423	0.3124498199024429	0.7355088835829064	1.41273316544913	0.28601506782640657	0.8977861188497169	1.8341972617853577	0.3007974578524109	0.6594591726957778	1.8751039821696318	0.3547308073532669	0.742098867166033	1.8918267514545095	0.27947046195757785	0.9298248267938827	1.8798652089669536	0.10860204195589046	0.5262825099581	0.9463435983901987	0.08056988520085684	0.6938513705495185	1.3926602185012222	0.06834993409472019	0.8670339159901255	1.8184310769623018	0.10940984080084652	0.7113715454070034	1.9006907742141959	0.037792402283354426	0.718861604254077	1.8780815248496272	0.08350380665549324	0.9738850130006153	1.8843668152844069	0.21568104203011482	0.3228411475931075	0.2900019473418685	0.2407283819419762	0.1759201412496811	0.06372911274159197	0.28330396355630477	0.15042709648620192	0.22644164491017618	0.38162118539412093	0.3711292453072112	0.35271334151030637	0.374162099150419	0.29966048542359414	0.6462370134579165	0.24932243923681707	0.09206243700640215	0.5405661306081923	0.16989588426752017	0.04645228256147294	0.4390352125732572	0.19721529519918293	-0.005585384629913632	0.43042976608988553	0.21543460988249122	0.025866475654422728	0.49376952360729376	0.046336831712630644	0.4054538573499615	0.3592340301230947	-0.033801475729517236	0.4836368949851066	0.6522178124789435	0.01676273489461684	0.5021812112768629	0.9237080073959154	0.08845284839600312	0.5023313814864591	1.03611515128357	0.06634307587993758	0.4615207951974762	1.062751114248392	-0.0026883420342088357	0.5339795988657019	1.0670531175247115
